<?xml version="1.0" encoding="utf-8"?>
<!-- Generator: Adobe Illustrator 21.1.0, SVG Export Plug-In . SVG Version: 6.00 Build 0)  -->
<svg version="1.1" id="Layer_1" xmlns="http://www.w3.org/2000/svg" xmlns:xlink="http://www.w3.org/1999/xlink" x="0px" y="0px"
	 viewBox="0 0 1920 1080" style="enable-background:new 0 0 1920 1080;" xml:space="preserve">
<style type="text/css">
	.st0{fill:#3D3D3D;}
</style>
<g>
	<path class="st0" d="M702.3,304.1h-59.2v196.7h-17.5v-14.6H611V304.1h-44.6v-14.6h-14.6v-16.9h136v14.6h14.6V304.1z M684.8,275.5
		H554.7v11.1h59.2v196.7h11.7V286.6h59.2V275.5z"/>
</g>
<g>
	<path class="st0" d="M650.7,586.3c-18.1-6.1-35.9-5.8-51.1,1.2c-15.8,7.6-25.4,21.6-25.1,37.1c0,29.2,27.1,37.1,52.5,42
		c23.6,5.5,53.7,8.8,68.9,31.2c5.3,7.9,7.9,16.6,7.9,26.8c0,11.7-2.9,22.8-9,31.8c-11.4,17.8-33.6,26.8-55.1,26.8
		c-6.4,0-13.4-0.9-20.1-2.3c-19.8-4.7-40.3-15.2-58.6-31.2l7.6-8.8c47,45.2,123.7,44.1,123.7-16.3c0-31.8-35-40.3-67.4-46.7
		c-10.2-2-25.4-5-37.9-12.3c-16-9.3-23.9-23.3-23.9-41.1c0-9.9,2.9-19.5,8.8-28c5.5-8.2,13.4-14.6,23.1-19.3
		c13.7-6.4,29.8-7.6,46.1-4.7c4.4,0.9,9,1.8,13.4,3.2L650.7,586.3z"/>
	<path class="st0" d="M860.2,582.8H801v196.7h-11.7V582.8h-59.2v-11.1h130.1V582.8z"/>
	<path class="st0" d="M1049.8,571.7v134.2c0,21-8.5,41.1-23.3,56c-15.2,15.2-35,23.1-56.3,23.1c-21.3,0-41.1-7.9-56-23.1
		c-15.2-14.9-23.3-34.7-23.3-56V571.7h11.7v134.2c0,37.3,30.3,68,67.7,68c37.3,0,68-30.6,68-68V571.7H1049.8z"/>
	<path class="st0" d="M1089.8,582.8l-0.3-11.1h69.2c14,0,27.7,2.6,40.6,8.2c12.3,5.3,23.3,12.8,33,22.2c9.6,9.6,16.9,20.7,22.2,33.3
		c5.5,12.5,8.2,26.3,8.2,40.3c0,14-2.6,27.7-8.2,40.6c-5.3,12.3-12.5,23.3-22.2,33c-9.6,9.3-20.7,16.9-33,22.2
		c-12.8,5.5-26.6,8.2-40.6,8.2h-69.2v-42.6h11.7v31.5h57.5c51.4,0,92.8-41.7,92.8-92.8c0-51.1-41.4-92.8-92.8-92.8H1089.8z"/>
	<path class="st0" d="M1323.8,779.4h-11.7V571.7h11.7V779.4z"/>
	<path class="st0" d="M1435.9,774.5c-12.8-5.5-24.5-13.4-34.4-23.3c-10.2-9.9-18.1-21.6-23.3-34.7c-5.8-13.4-8.8-27.4-8.8-42.3
		c0-14.6,2.9-28.9,8.8-42.3c5.3-12.8,13.1-24.5,23-34.7c10.2-9.9,21.9-17.8,34.7-23.3c13.4-5.5,27.7-7.9,42.3-7.9
		c14.9,0,29.2,2.3,42.6,7.9c12.8,5.5,24.5,13.4,34.4,23.3c9.9,10.2,17.8,21.9,23.3,34.7c5.8,13.4,8.5,27.7,8.5,42.3
		c0,14.9-2.6,28.9-8.5,42.3c-5.5,13.1-13.4,24.8-23.3,34.7c-9.9,9.9-21.6,17.8-34.4,23.3c-13.4,5.5-27.7,8.2-42.6,8.2
		C1463.6,782.7,1449.3,780,1435.9,774.5z M1381,674.1c0,53.7,43.8,97.5,97.2,97.5c53.7,0,97.2-43.8,97.2-97.5
		c0-53.7-43.5-97.5-97.2-97.5C1424.8,576.7,1381,620.4,1381,674.1z"/>
	<path class="st0" d="M1704.6,586.3c-18.1-6.1-35.9-5.8-51.1,1.2c-15.8,7.6-25.4,21.6-25.1,37.1c0,29.2,27.1,37.1,52.5,42
		c23.6,5.5,53.7,8.8,68.9,31.2c5.3,7.9,7.9,16.6,7.9,26.8c0,11.7-2.9,22.8-9,31.8c-11.4,17.8-33.6,26.8-55.1,26.8
		c-6.4,0-13.4-0.9-20.1-2.3c-19.8-4.7-40.3-15.2-58.6-31.2l7.6-8.8c47,45.2,123.7,44.1,123.7-16.3c0-31.8-35-40.3-67.4-46.7
		c-10.2-2-25.4-5-37.9-12.3c-16-9.3-23.9-23.3-23.9-41.1c0-9.9,2.9-19.5,8.8-28c5.5-8.2,13.4-14.6,23.1-19.3
		c13.7-6.4,29.8-7.6,46.1-4.7c4.4,0.9,9,1.8,13.4,3.2L1704.6,586.3z"/>
</g>
<g>
	<path class="st0" d="M228.3,342.2V310h-32.2v-37.3h288.1v32.2h32.2v37.3H228.3z M371.7,437.4v32.2h32.2v37.3h-137v268.8h-38.6
		v-32.2h-32.2V437.4H371.7z M477.8,303.6v-24.4H202.5v24.4H477.8z M202.5,443.8v293.3h25.7V468.2h137v-24.4H202.5z"/>
</g>
</svg>
